#tb 0: 2/25
0,          0,          0,        1,   192000, 0x00000000
0,          2,          2,        1,   192000, 0x95ece4ea
0,          3,          3,        1,   192000, 0x9abaf682
0,          4,          4,        1,   192000, 0x9a93fed6
0,          5,          5,        1,   192000, 0x112dfade
0,          6,          6,        1,   192000, 0xb8f3e986
0,          7,          7,        1,   192000, 0x21daea8e
0,          8,          8,        1,   192000, 0x5dc1032d
